<?xml version="1.0" standalone="no"?>
<!DOCTYPE svg PUBLIC "-//W3C//DTD SVG 20010904//EN"
 "http://www.w3.org/TR/2001/REC-SVG-20010904/DTD/svg10.dtd">
<svg version="1.0" xmlns="http://www.w3.org/2000/svg"
 width="260.000000pt" height="260.000000pt" viewBox="0 0 260.000000 260.000000"
 preserveAspectRatio="xMidYMid meet">
<metadata>
Created by potrace 1.11, written by Peter Selinger 2001-2013
</metadata>
<g transform="translate(0.000000,260.000000) scale(0.100000,-0.100000)"
fill="#000000" stroke="none">
<path d="M0 1300 l0 -1300 1300 0 1300 0 0 1300 0 1300 -1300 0 -1300 0 0
-1300z m833 825 c32 -8 76 -24 98 -35 90 -47 164 -153 177 -258 l7 -57 55 5
c81 7 198 6 256 -3 l51 -7 7 56 c14 121 107 240 224 285 76 29 212 32 292 5
279 -94 430 -384 319 -613 -50 -104 -160 -177 -296 -196 -68 -10 -74 -13 -68
-32 4 -11 9 -67 12 -126 4 -85 2 -120 -15 -185 -80 -315 -332 -515 -652 -515
-310 0 -564 193 -647 491 l-16 61 -30 -51 c-23 -40 -34 -50 -51 -48 -11 2 -22
10 -24 19 -5 26 98 189 119 189 10 0 54 -21 98 -47 63 -36 81 -52 81 -69 0
-34 -20 -35 -77 -3 -49 27 -53 28 -53 10 0 -32 45 -147 81 -207 19 -31 64 -85
102 -120 235 -222 599 -222 834 0 122 115 181 244 190 411 5 82 2 116 -16 185
-11 46 -21 86 -21 89 0 4 39 6 88 6 108 0 174 21 237 77 211 186 71 543 -246
624 -79 20 -162 13 -233 -19 -70 -33 -107 -66 -141 -129 -24 -44 -30 -68 -33
-141 l-5 -89 -26 7 c-150 38 -228 43 -336 19 -38 -8 -82 -17 -96 -20 l-25 -6
-1 80 c-2 173 -104 284 -283 308 -159 21 -358 -94 -432 -251 -90 -194 -17
-381 175 -446 43 -14 52 -22 52 -41 0 -32 -28 -34 -98 -8 -74 28 -158 104
-193 176 -36 74 -44 179 -19 270 65 240 346 410 578 349z"/>
</g>
</svg>
